# xmcd
#
# Track frame offsets:
#	150
#	18587
#	39128
#	59861
#	81732
#	101047
#	115818
#	137471
#	158157
#	177098
#	194366
#	211269
#
# Disc length: 3066 seconds
#
# Revision: 2
# Processed by: cddbd v1.5PL3 Copyright (c) Steve Scherf et al.
# Submitted via: EasyCDDAExtractor 7.0.5.1
#
DISCID=a50bf80c
DTITLE=Rick Vito and The Lucky Devils - Rattlesnake Shake
DYEAR=2004
DGENRE=Blues
TTITLE0=Rattlesnake Shake
TTITLE1=Going to Las Vegas
TTITLE2=It's 2 A.M.
TTITLE3=My Baby's Hot
TTITLE4=The Glory Road
TTITLE5=Albatross
TTITLE6=Walk Another Mile
TTITLE7=Jump Little Sister Jump
TTITLE8=I Am Not Alone
TTITLE9=Devil Love
TTITLE10=SLiding The BLues
TTITLE11=Hole In My Shoe
EXTD=
EXTT0=
EXTT1=
EXTT2=
EXTT3=
EXTT4=
EXTT5=
EXTT6=
EXTT7=
EXTT8=
EXTT9=
EXTT10=
EXTT11=
PLAYORDER=
